<svg width="79" height="79" viewBox="0 0 79 79" fill="none" xmlns="http://www.w3.org/2000/svg">
<g clip-path="url(#clip0_1_485)">
<path d="M40.077 2.90161L4.76453 29.3956V75.3215C4.76453 76.6313 5.79562 77.6607 7.10828 77.6607H73.0458C74.3584 77.6607 75.3895 76.6313 75.3895 75.3215V29.3956L40.077 2.90161Z" fill="#80EAFF"/>
<path d="M73.0458 77.6607C74.3584 77.6607 75.3895 76.6313 75.3895 75.3215V29.3956L40.077 2.90161V77.6607H73.0458Z" fill="#73D2FF"/>
<path d="M41.0616 65.5592L41.8583 66.4481C42.7021 67.4307 42.6082 68.881 41.624 69.7699C41.1551 70.144 40.6394 70.3313 40.0769 70.3313C39.4207 70.3313 38.7643 70.0506 38.2957 69.5358C37.8271 68.9279 33.9833 64.6235 33.6082 64.2026C33.2801 63.8282 33.0926 63.3137 33.0926 62.7523C33.0457 62.0974 33.2799 61.4422 33.7488 61.0213L38.4363 56.343C38.858 55.875 39.4674 55.6411 40.0768 55.6411C40.6862 55.6411 41.2955 55.875 41.7172 56.343C42.6547 57.2319 42.6547 58.7286 41.7172 59.6645L40.4518 60.9278C49.3113 60.7406 56.4833 53.489 56.4833 44.6003C56.4833 40.1559 54.749 36.0388 51.6085 32.9512C50.671 32.0155 50.671 30.5652 51.5616 29.6294C52.4523 28.6936 53.9522 28.6937 54.8896 29.5826C58.921 33.606 61.171 38.8926 61.171 44.6003C61.1708 55.875 52.2179 65.0447 41.0616 65.5592Z" fill="#5C7199"/>
<path d="M47.0614 26.3078C47.1083 27.0097 46.8271 27.7581 46.4052 28.1323L41.7177 32.8107C41.296 33.2784 40.6866 33.5126 40.0772 33.5126C39.4678 33.5126 38.8585 33.2785 38.4367 32.8107C37.4992 31.9218 37.4992 30.4247 38.4367 29.4889L39.6552 28.2729C30.796 28.5068 23.6708 35.7113 23.6708 44.6003C23.6708 48.998 25.4052 53.1616 28.5457 56.2494C29.4832 57.1383 29.4832 58.6354 28.5457 59.5712C27.655 60.4601 26.1553 60.5067 25.2646 59.5712C21.1861 55.5945 18.9832 50.261 18.9832 44.6005C18.9832 33.3255 27.9361 24.1561 39.0924 23.6413L38.3425 22.7524C37.4519 21.8169 37.5458 20.3198 38.5299 19.4777C38.9988 19.0565 39.5613 18.8695 40.0769 18.8695C40.7332 18.8695 41.3427 19.1502 41.8113 19.6647L46.4988 24.9044C46.7332 25.185 47.0144 25.7932 47.0614 26.3078Z" fill="#5C7199"/>
<path d="M76.3281 32.4361L40.0772 5.2642L3.82625 32.4361C2.79625 33.206 1.32688 33.0048 0.544067 31.9678C-0.229527 30.9353 -0.0190579 29.4688 1.01563 28.6944L38.6719 0.469351C39.505 -0.156613 40.6494 -0.156613 41.4825 0.469351L79.1387 28.6944C80.1733 29.4688 80.3839 30.9353 79.6103 31.9678C78.8317 33.0025 77.3639 33.2115 76.3281 32.4361Z" fill="#F98845"/>
<path d="M77.7333 79.9999H2.42078C1.12531 79.9999 0.0770264 78.9537 0.0770264 77.6607C0.0770264 76.3678 1.12531 75.3215 2.42078 75.3215H77.7333C79.0287 75.3215 80.077 76.3678 80.077 77.6607C80.077 78.9537 79.0287 79.9999 77.7333 79.9999Z" fill="#F2FBFF"/>
<path d="M77.7333 75.3215H40.077V79.9999H77.7333C79.0287 79.9999 80.077 78.9537 80.077 77.6607C80.077 76.3678 79.0287 75.3215 77.7333 75.3215Z" fill="#CFE1F3"/>
<path d="M76.328 32.4361C77.3636 33.2114 78.8317 33.0024 79.6102 31.9678C80.3837 30.9353 80.1733 29.4688 79.1386 28.6944L41.4823 0.469395C41.0658 0.156413 40.5714 0 40.077 0V5.26425L76.328 32.4361Z" fill="#EC4C36"/>
<path d="M41.0616 65.5592L41.8583 66.4481C42.7021 67.4307 42.6082 68.881 41.6239 69.7699C41.155 70.144 40.6394 70.3313 40.0769 70.3313V55.6412C40.6863 55.6412 41.2957 55.8752 41.7174 56.3431C42.6549 57.232 42.6549 58.7288 41.7174 59.6646L40.4519 60.9279C49.3113 60.7406 56.4833 53.489 56.4833 44.6003C56.4833 40.1559 54.7489 36.0388 51.6085 32.9512C50.671 32.0155 50.671 30.5652 51.5616 29.6294C52.4522 28.6936 53.9522 28.6937 54.8896 29.5826C58.921 33.606 61.171 38.8926 61.171 44.6003C61.1708 55.875 52.2178 65.0447 41.0616 65.5592Z" fill="#4D5680"/>
<path d="M47.0616 26.3078C47.1085 27.0097 46.8272 27.7581 46.4054 28.1324L41.7179 32.8107C41.2961 33.2784 40.6868 33.5126 40.0774 33.5126V18.8694C40.7336 18.8694 41.3432 19.1501 41.8118 19.6645L46.4993 24.9043C46.7333 25.185 47.0146 25.7932 47.0616 26.3078Z" fill="#4D5680"/>
</g>
<defs>
<clipPath id="clip0_1_485">
<rect width="79" height="79" fill="white"/>
</clipPath>
</defs>
</svg>
