<svg width="80" height="80" viewBox="0 0 80 80" fill="none" xmlns="http://www.w3.org/2000/svg">
<path d="M78.7879 39.9758C78.7879 61.4303 61.4303 78.7879 40.0243 78.7879C18.5697 78.7879 1.21216 61.4303 1.21216 39.9758C1.21216 18.5697 18.5697 1.21216 40.0243 1.21216C61.4303 1.21216 78.7879 18.5697 78.7879 39.9758Z" fill="#FCD131"/>
<path d="M68.4848 39.9879C68.4848 55.7454 55.7454 68.4848 40.0121 68.4848C24.2545 68.4848 11.5151 55.7454 11.5151 39.9879C11.5151 24.2545 24.2545 11.5151 40.0121 11.5151C55.7454 11.5151 68.4848 24.2545 68.4848 39.9879Z" fill="#F6AF21"/>
<path d="M42.2546 53.3818V68.3879C41.5152 68.4606 40.7758 68.4849 40.0121 68.4849C39.1879 68.4849 38.3879 68.4485 37.5879 68.3758V53.3818H42.2546Z" fill="#E5E5E5"/>
<path d="M35.103 22.4243V32.7031H29.5515V22.4243C29.5515 20.8849 30.8 19.6486 32.3273 19.6486C33.8667 19.6486 35.103 20.897 35.103 22.4243Z" fill="white"/>
<path d="M50.3031 22.4243V32.7031H44.7516V22.4243C44.7516 20.8849 46.0001 19.6486 47.5273 19.6486C49.0667 19.6486 50.3031 20.897 50.3031 22.4243Z" fill="white"/>
<path d="M53.9152 37.2849V46.8607C53.9152 54.6304 47.6122 60.9334 39.8425 60.9334C32.0728 60.9334 25.7698 54.6304 25.7698 46.8607V37.2849H53.9152Z" fill="#44394A"/>
<path d="M58.1576 35.2849C58.1576 37.4909 56.3758 39.2728 54.1698 39.2728H25.6849C23.4788 39.2728 21.697 37.4909 21.697 35.2849C21.697 33.0788 23.4788 31.297 25.6849 31.297H54.1698C56.3758 31.297 58.1576 33.0909 58.1576 35.2849Z" fill="#8C9FFA"/>
<path d="M44.0243 42.9092H39.6364C39.5031 42.9092 39.3819 42.9819 39.3213 43.091L35.3455 50.2304C35.2122 50.4728 35.3819 50.7637 35.6607 50.7637H37.1031C37.3819 50.7637 37.5758 51.0546 37.4667 51.3092L35.6001 55.8061C35.4546 56.1577 35.8667 56.4607 36.1576 56.2304L42.9576 50.6668C43.2243 50.4486 43.0667 50.0243 42.7273 50.0243H41.297C40.994 50.0243 40.8001 49.6971 40.9576 49.4304L44.3273 43.4425C44.4728 43.2001 44.3031 42.9092 44.0243 42.9092Z" fill="white"/>
</svg>
