<svg width="85" height="85" viewBox="0 0 85 85" fill="none" xmlns="http://www.w3.org/2000/svg">
<g clip-path="url(#clip0_1_159)">
<path d="M64.9121 50.1367H83.3398V83.3398H64.9121V50.1367Z" fill="#B5B3EE"/>
<path d="M44.9902 33.5352H68.2324V83.3398H44.9902V33.5352Z" fill="white"/>
<path d="M1.66016 58.4375H11.7871V83.3398H1.66016V58.4375Z" fill="white"/>
<path d="M31.709 43.4961L11.7871 33.5352V83.3398H31.709V43.4961Z" fill="#FFDA8F"/>
<path d="M53.291 73.3789H59.9316V83.3398H53.291V73.3789Z" fill="#FFDA8F"/>
<path d="M25.0684 60.0977H44.9902V83.3398H25.0684V60.0977Z" fill="#B5B3EE"/>
<path d="M35.8594 29.8828C36.7763 29.8828 37.5195 29.1396 37.5195 28.2227V21.582C37.5195 20.6651 36.7763 19.9219 35.8594 19.9219C34.9425 19.9219 34.1992 20.6651 34.1992 21.582V28.2227C34.1992 29.1396 34.9425 29.8828 35.8594 29.8828Z" fill="black"/>
<path d="M35.8594 9.96094C36.7763 9.96094 37.5195 9.21769 37.5195 8.30078V1.66016C37.5195 0.743252 36.7763 0 35.8594 0C34.9425 0 34.1992 0.743252 34.1992 1.66016V8.30078C34.1992 9.21769 34.9425 9.96094 35.8594 9.96094Z" fill="black"/>
<path d="M40.8398 14.9414C40.8398 15.8583 41.5831 16.6016 42.5 16.6016H49.1406C50.0575 16.6016 50.8008 15.8583 50.8008 14.9414C50.8008 14.0245 50.0575 13.2812 49.1406 13.2812H42.5C41.5831 13.2812 40.8398 14.0245 40.8398 14.9414Z" fill="black"/>
<path d="M22.5781 16.6016H29.2188C30.1357 16.6016 30.8789 15.8583 30.8789 14.9414C30.8789 14.0245 30.1357 13.2812 29.2188 13.2812H22.5781C21.6612 13.2812 20.918 14.0245 20.918 14.9414C20.918 15.8583 21.6612 16.6016 22.5781 16.6016Z" fill="black"/>
<path d="M44.0767 25.5066C44.725 26.1549 45.7762 26.1549 46.4245 25.5066C47.0728 24.8583 47.0728 23.8071 46.4245 23.1588L43.1042 19.8385C42.4559 19.1902 41.4047 19.1902 40.7564 19.8385C40.1081 20.4868 40.1081 21.538 40.7564 22.1863L44.0767 25.5066Z" fill="black"/>
<path d="M28.6146 10.0445C29.2629 10.6928 30.3141 10.6928 30.9624 10.0445C31.6107 9.39617 31.6107 8.34496 30.9624 7.69667L27.6421 4.37635C26.9938 3.72806 25.9426 3.72806 25.2943 4.37635C24.646 5.02465 24.646 6.07586 25.2943 6.72415L28.6146 10.0445Z" fill="black"/>
<path d="M40.7564 10.0445C41.4047 10.6928 42.4559 10.6928 43.1042 10.0445L46.4245 6.72415C47.0728 6.07586 47.0728 5.02465 46.4245 4.37635C45.7762 3.72806 44.725 3.72806 44.0767 4.37635L40.7564 7.69667C40.1081 8.34496 40.1081 9.396 40.7564 10.0445Z" fill="black"/>
<path d="M30.9624 19.8384C30.3141 19.1901 29.2629 19.1901 28.6146 19.8384L25.2943 23.1587C24.646 23.807 24.646 24.8582 25.2943 25.5065C25.9426 26.1548 26.9938 26.1548 27.6421 25.5065L30.9624 22.1862C31.6107 21.5379 31.6107 20.4868 30.9624 19.8384Z" fill="black"/>
<path d="M35.8594 16.6016C36.7763 16.6016 37.5195 15.8583 37.5195 14.9414C37.5195 14.0245 36.7763 13.2812 35.8594 13.2812C34.9425 13.2812 34.1992 14.0245 34.1992 14.9414C34.1992 15.8583 34.9425 16.6016 35.8594 16.6016Z" fill="black"/>
<path d="M83.3398 48.4766H69.8926V33.5352C69.8926 32.6183 69.1492 31.875 68.2324 31.875H44.9902C44.0735 31.875 43.3301 32.6183 43.3301 33.5352V58.4375H33.3691V43.4961C33.3691 42.8672 33.0139 42.2925 32.4514 42.0112L13.4473 32.5092V25.2344C13.4473 24.3175 12.7038 23.5742 11.7871 23.5742C10.8704 23.5742 10.127 24.3175 10.127 25.2344V56.7773H1.66016C0.743418 56.7773 0 57.5206 0 58.4375V83.3398C0 84.2567 0.743418 85 1.66016 85H83.3398C84.2566 85 85 84.2567 85 83.3398V50.1367C85 49.2198 84.2566 48.4766 83.3398 48.4766ZM10.127 81.6797H3.32031V60.0977H10.127V81.6797ZM23.4082 65.0781H18.4277C17.511 65.0781 16.7676 65.8214 16.7676 66.7383C16.7676 67.6552 17.511 68.3984 18.4277 68.3984H23.4082V71.7188H18.4277C17.511 71.7188 16.7676 72.462 16.7676 73.3789C16.7676 74.2958 17.511 75.0391 18.4277 75.0391H23.4082V81.6797H13.4473V36.2213L30.0488 44.5221V58.4375H18.4277C17.511 58.4375 16.7676 59.1808 16.7676 60.0977C16.7676 61.0146 17.511 61.7578 18.4277 61.7578H23.4082V65.0781ZM43.3301 81.6797H36.6895V76.6992C36.6895 75.7823 35.946 75.0391 35.0293 75.0391C34.1126 75.0391 33.3691 75.7823 33.3691 76.6992V81.6797H26.7285V61.7578H43.3301V81.6797ZM58.2715 81.6797H54.9512V75.0391H58.2715V81.6797ZM81.6797 55.1172H74.873C73.9563 55.1172 73.2129 55.8604 73.2129 56.7773C73.2129 57.6942 73.9563 58.4375 74.873 58.4375H81.6797V61.7578H74.873C73.9563 61.7578 73.2129 62.5011 73.2129 63.418C73.2129 64.3349 73.9563 65.0781 74.873 65.0781H81.6797V68.3984H74.873C73.9563 68.3984 73.2129 69.1417 73.2129 70.0586C73.2129 70.9755 73.9563 71.7188 74.873 71.7188H81.6797V75.0391H74.873C73.9563 75.0391 73.2129 75.7823 73.2129 76.6992C73.2129 77.6161 73.9563 78.3594 74.873 78.3594H81.6797V81.6797H69.8926V70.8887C69.8926 69.9718 69.1492 69.2285 68.2324 69.2285C67.3157 69.2285 66.5723 69.9718 66.5723 70.8887V81.6797H61.5918V73.3789C61.5918 72.462 60.8484 71.7188 59.9316 71.7188H53.291C52.3743 71.7188 51.6309 72.462 51.6309 73.3789V81.6797H46.6504V35.1953H66.5723V55.9473C66.5723 56.8642 67.3157 57.6074 68.2324 57.6074C69.1492 57.6074 69.8926 56.8642 69.8926 55.9473V51.7969H81.6797V55.1172Z" fill="black"/>
<path d="M18.4277 48.4766H25.0684C25.9851 48.4766 26.7285 47.7333 26.7285 46.8164C26.7285 45.8995 25.9851 45.1562 25.0684 45.1562H18.4277C17.511 45.1562 16.7676 45.8995 16.7676 46.8164C16.7676 47.7333 17.511 48.4766 18.4277 48.4766Z" fill="black"/>
<path d="M18.4277 55.1172H25.0684C25.9851 55.1172 26.7285 54.3739 26.7285 53.457C26.7285 52.5401 25.9851 51.7969 25.0684 51.7969H18.4277C17.511 51.7969 16.7676 52.5401 16.7676 53.457C16.7676 54.3739 17.511 55.1172 18.4277 55.1172Z" fill="black"/>
<path d="M68.2324 65.0781C69.1493 65.0781 69.8926 64.3348 69.8926 63.418C69.8926 62.5011 69.1493 61.7578 68.2324 61.7578C67.3155 61.7578 66.5723 62.5011 66.5723 63.418C66.5723 64.3348 67.3155 65.0781 68.2324 65.0781Z" fill="black"/>
<path d="M61.5918 38.5156H51.6309C50.7141 38.5156 49.9707 39.2589 49.9707 40.1758C49.9707 41.0927 50.7141 41.8359 51.6309 41.8359H61.5918C62.5085 41.8359 63.252 41.0927 63.252 40.1758C63.252 39.2589 62.5085 38.5156 61.5918 38.5156Z" fill="black"/>
<path d="M61.5918 45.1562H51.6309C50.7141 45.1562 49.9707 45.8995 49.9707 46.8164C49.9707 47.7333 50.7141 48.4766 51.6309 48.4766H61.5918C62.5085 48.4766 63.252 47.7333 63.252 46.8164C63.252 45.8995 62.5085 45.1562 61.5918 45.1562Z" fill="black"/>
<path d="M61.5918 51.7969H51.6309C50.7141 51.7969 49.9707 52.5401 49.9707 53.457C49.9707 54.3739 50.7141 55.1172 51.6309 55.1172H61.5918C62.5085 55.1172 63.252 54.3739 63.252 53.457C63.252 52.5401 62.5085 51.7969 61.5918 51.7969Z" fill="black"/>
<path d="M61.5918 58.4375H51.6309C50.7141 58.4375 49.9707 59.1808 49.9707 60.0977C49.9707 61.0146 50.7141 61.7578 51.6309 61.7578H61.5918C62.5085 61.7578 63.252 61.0146 63.252 60.0977C63.252 59.1808 62.5085 58.4375 61.5918 58.4375Z" fill="black"/>
<path d="M61.5918 65.0781H51.6309C50.7141 65.0781 49.9707 65.8214 49.9707 66.7383C49.9707 67.6552 50.7141 68.3984 51.6309 68.3984H61.5918C62.5085 68.3984 63.252 67.6552 63.252 66.7383C63.252 65.8214 62.5085 65.0781 61.5918 65.0781Z" fill="black"/>
<path d="M31.709 71.7188C32.6257 71.7188 33.3691 70.9755 33.3691 70.0586V66.7383C33.3691 65.8214 32.6257 65.0781 31.709 65.0781C30.7922 65.0781 30.0488 65.8214 30.0488 66.7383V70.0586C30.0488 70.9755 30.7922 71.7188 31.709 71.7188Z" fill="black"/>
<path d="M39.1797 71.7188C40.0964 71.7188 40.8398 70.9755 40.8398 70.0586V66.7383C40.8398 65.8214 40.0964 65.0781 39.1797 65.0781C38.2629 65.0781 37.5195 65.8214 37.5195 66.7383V70.0586C37.5195 70.9755 38.2629 71.7188 39.1797 71.7188Z" fill="black"/>
<path d="M63.252 6.64062C64.1688 6.64062 64.9121 5.89735 64.9121 4.98047C64.9121 4.06359 64.1688 3.32031 63.252 3.32031C62.3351 3.32031 61.5918 4.06359 61.5918 4.98047C61.5918 5.89735 62.3351 6.64062 63.252 6.64062Z" fill="black"/>
<path d="M76.5332 22.7441H78.1934V24.4043C78.1934 25.3212 78.9368 26.0645 79.8535 26.0645C80.7703 26.0645 81.5137 25.3212 81.5137 24.4043V22.7441H83.1738C84.0906 22.7441 84.834 22.0009 84.834 21.084C84.834 20.1671 84.0906 19.4238 83.1738 19.4238H81.5137V17.7637C81.5137 16.8468 80.7703 16.1035 79.8535 16.1035C78.9368 16.1035 78.1934 16.8468 78.1934 17.7637V19.4238H76.5332C75.6165 19.4238 74.873 20.1671 74.873 21.084C74.873 22.0009 75.6165 22.7441 76.5332 22.7441Z" fill="black"/>
<path d="M4.31641 16.9336H5.97656V18.5938C5.97656 19.5107 6.71998 20.2539 7.63672 20.2539C8.55346 20.2539 9.29688 19.5107 9.29688 18.5938V16.9336H10.957C11.8738 16.9336 12.6172 16.1903 12.6172 15.2734C12.6172 14.3565 11.8738 13.6133 10.957 13.6133H9.29688V11.9531C9.29688 11.0362 8.55346 10.293 7.63672 10.293C6.71998 10.293 5.97656 11.0362 5.97656 11.9531V13.6133H4.31641C3.39967 13.6133 2.65625 14.3565 2.65625 15.2734C2.65625 16.1903 3.39967 16.9336 4.31641 16.9336Z" fill="black"/>
</g>
<defs>
<clipPath id="clip0_1_159">
<rect width="85" height="85" fill="white"/>
</clipPath>
</defs>
</svg>
