<svg width="79" height="80" viewBox="0 0 79 80" fill="none" xmlns="http://www.w3.org/2000/svg">
<g clip-path="url(#clip0_1_566)">
<path d="M48.125 16.875H48.65C48.352 18.9567 47.3132 20.8612 45.7243 22.2388C44.1354 23.6164 42.1029 24.3748 40 24.3748C37.897 24.3748 35.8646 23.6164 34.2757 22.2388C32.6868 20.8612 31.648 18.9567 31.35 16.875H31.875C32.2065 16.875 32.5244 16.7433 32.7589 16.5089C32.9933 16.2744 33.125 15.9565 33.125 15.625C33.125 15.2935 32.9933 14.9755 32.7589 14.7411C32.5244 14.5067 32.2065 14.375 31.875 14.375H31.35C31.5568 12.9304 32.1243 11.5611 33 10.3937L33.3687 10.7625C33.6042 10.9978 33.9233 11.1304 34.2562 11.1312C34.5033 11.1299 34.7445 11.0556 34.9495 10.9177C35.1544 10.7797 35.314 10.5842 35.4082 10.3558C35.5024 10.1273 35.5269 9.87615 35.4788 9.63381C35.4306 9.39147 35.3119 9.16877 35.1375 8.99373L34.7687 8.62498C35.9361 7.7493 37.3054 7.18183 38.75 6.97498V7.49998C38.75 7.8315 38.8817 8.14944 39.1161 8.38386C39.3505 8.61828 39.6685 8.74998 40 8.74998C40.3315 8.74998 40.6494 8.61828 40.8839 8.38386C41.1183 8.14944 41.25 7.8315 41.25 7.49998V6.97498C42.6946 7.18183 44.0638 7.7493 45.2312 8.62498L44.8625 8.99373C44.7463 9.10986 44.6542 9.24774 44.5914 9.39948C44.5285 9.55122 44.4962 9.71386 44.4962 9.8781C44.4962 10.0423 44.5285 10.205 44.5914 10.3567C44.6542 10.5085 44.7463 10.6463 44.8625 10.7625C44.9786 10.8786 45.1165 10.9707 45.2682 11.0336C45.42 11.0964 45.5826 11.1288 45.7469 11.1288C45.9111 11.1288 46.0737 11.0964 46.2255 11.0336C46.3772 10.9707 46.5151 10.8786 46.6312 10.7625L47 10.3937C47.8757 11.5611 48.4431 12.9304 48.65 14.375H48.125C47.7935 14.375 47.4755 14.5067 47.2411 14.7411C47.0067 14.9755 46.875 15.2935 46.875 15.625C46.875 15.9565 47.0067 16.2744 47.2411 16.5089C47.4755 16.7433 47.7935 16.875 48.125 16.875Z" fill="#E1EBF4"/>
<path opacity="0.5" d="M48.65 14.375C48.352 12.2932 47.3132 10.3888 45.7243 9.01117C44.1354 7.63353 42.1029 6.87512 40 6.87512C37.897 6.87512 35.8646 7.63353 34.2757 9.01117C32.6868 10.3888 31.648 12.2932 31.35 14.375H31.625C32.1609 12.5697 33.2658 10.986 34.775 9.85973C36.2842 8.73346 38.1169 8.125 40 8.125C41.8831 8.125 43.7158 8.73346 45.225 9.85973C46.7342 10.986 47.8391 12.5697 48.375 14.375H48.65Z" fill="white"/>
<path d="M14.9999 49.0625H20.6249V37.0312H16.9791V25H4.47913V41.25C4.47913 41.25 8.02076 49.0625 14.9999 49.0625Z" fill="#E1EBF4"/>
<path d="M65.7292 36.9271H59.375V48.8542H62.1875C62.1875 48.8542 63.6458 48.5417 63.5938 50.7813C63.5417 53.0209 63.5938 54.8438 63.5938 54.8438H75.4167V44.1667C75.4167 44.1667 72.5 36.9271 65.7292 36.9271Z" fill="#E1EBF4"/>
<path d="M36.9794 25H43.6462V31.25H36.9794V25Z" fill="#E1EBF4"/>
<path d="M39.9999 4.375C37.4038 4.37471 34.8875 5.27244 32.8777 6.91592C30.868 8.5594 29.4886 10.8474 28.9735 13.392C28.4584 15.9365 28.8393 18.5809 30.0517 20.8766C31.264 23.1724 33.2331 24.9781 35.6249 25.9875V31.25H38.1249V26.7062C39.3648 26.9313 40.6351 26.9313 41.8749 26.7062V31.25H44.3749V25.9875C46.7668 24.9781 48.7359 23.1724 49.9482 20.8766C51.1606 18.5809 51.5415 15.9365 51.0264 13.392C50.5113 10.8474 49.1319 8.5594 47.1222 6.91592C45.1124 5.27244 42.5961 4.37471 39.9999 4.375ZM39.9999 24.375C37.8973 24.3738 35.8655 23.6149 34.2769 22.2375C32.6882 20.86 31.6491 18.9563 31.3499 16.875H31.8749C32.2065 16.875 32.5244 16.7433 32.7588 16.5089C32.9933 16.2745 33.1249 15.9565 33.1249 15.625C33.1249 15.2935 32.9933 14.9755 32.7588 14.7411C32.5244 14.5067 32.2065 14.375 31.8749 14.375H31.3499C31.5568 12.9304 32.1243 11.5612 32.9999 10.3937L33.3687 10.7625C33.6042 10.9979 33.9233 11.1304 34.2562 11.1312C34.5033 11.13 34.7445 11.0557 34.9494 10.9177C35.1544 10.7797 35.314 10.5842 35.4082 10.3558C35.5024 10.1273 35.5269 9.87618 35.4787 9.63383C35.4306 9.39149 35.3118 9.1688 35.1375 8.99375L34.7687 8.625C35.9361 7.74932 37.3053 7.18186 38.7499 6.975V7.5C38.7499 7.83152 38.8816 8.14946 39.1161 8.38388C39.3505 8.6183 39.6684 8.75 39.9999 8.75C40.3315 8.75 40.6494 8.6183 40.8838 8.38388C41.1183 8.14946 41.2499 7.83152 41.2499 7.5V6.975C42.6946 7.18186 44.0638 7.74932 45.2312 8.625L44.8624 8.99375C44.7463 9.10989 44.6542 9.24776 44.5913 9.3995C44.5285 9.55125 44.4961 9.71388 44.4961 9.87813C44.4961 10.0424 44.5285 10.205 44.5913 10.3567C44.6542 10.5085 44.7463 10.6464 44.8624 10.7625C44.9786 10.8786 45.1165 10.9708 45.2682 11.0336C45.4199 11.0965 45.5826 11.1288 45.7468 11.1288C45.9111 11.1288 46.0737 11.0965 46.2254 11.0336C46.3772 10.9708 46.5151 10.8786 46.6312 10.7625L46.9999 10.3937C47.8756 11.5612 48.4431 12.9304 48.6499 14.375H48.125C47.7934 14.375 47.4755 14.5067 47.2411 14.7411C47.0066 14.9755 46.875 15.2935 46.875 15.625C46.875 15.9565 47.0066 16.2745 47.2411 16.5089C47.4755 16.7433 47.7934 16.875 48.125 16.875H48.6499C48.3508 18.9563 47.3117 20.86 45.723 22.2375C44.1344 23.6149 42.1026 24.3738 39.9999 24.375Z" fill="#2D4356"/>
<path d="M76.875 63.75C77.7037 63.7497 78.4984 63.4204 79.0844 62.8344C79.6704 62.2484 79.9997 61.4537 80 60.625V56.875C79.9997 56.0463 79.6704 55.2516 79.0844 54.6656C78.4984 54.0796 77.7037 53.7503 76.875 53.75H76.25V46.875C76.246 44.0583 75.1253 41.3581 73.1336 39.3664C71.1419 37.3747 68.4417 36.254 65.625 36.25H59.375V38.75H65.625C67.7793 38.7521 69.8447 39.6087 71.368 41.132C72.8913 42.6553 73.7479 44.7207 73.75 46.875V53.75H65V51.25C64.9992 50.2557 64.6039 49.3023 63.9008 48.5992C63.1977 47.8961 62.2443 47.5008 61.25 47.5H59.375V50H61.25C61.5812 50.001 61.8986 50.133 62.1328 50.3672C62.367 50.6014 62.499 50.9188 62.5 51.25V53.75H61.875C61.0463 53.7503 60.2516 54.0796 59.6656 54.6656C59.0796 55.2516 58.7503 56.0463 58.75 56.875V60.625C58.7503 61.4537 59.0796 62.2484 59.6656 62.8344C60.2516 63.4204 61.0463 63.7497 61.875 63.75H62.5V70H61.875C61.0463 70.0003 60.2516 70.3296 59.6656 70.9156C59.0796 71.5016 58.7503 72.2963 58.75 73.125V76.875C58.7503 77.7037 59.0796 78.4984 59.6656 79.0844C60.2516 79.6704 61.0463 79.9997 61.875 80H76.875C77.7037 79.9997 78.4984 79.6704 79.0844 79.0844C79.6704 78.4984 79.9997 77.7037 80 76.875V73.125C79.9997 72.2963 79.6704 71.5016 79.0844 70.9156C78.4984 70.3296 77.7037 70.0003 76.875 70H76.25V63.75H76.875ZM76.875 72.5C77.0406 72.5005 77.1993 72.5665 77.3164 72.6836C77.4335 72.8007 77.4995 72.9594 77.5 73.125V76.875C77.4995 77.0406 77.4335 77.1993 77.3164 77.3164C77.1993 77.4335 77.0406 77.4995 76.875 77.5H61.875C61.7094 77.4995 61.5507 77.4335 61.4336 77.3164C61.3165 77.1993 61.2505 77.0406 61.25 76.875V73.125C61.2505 72.9594 61.3165 72.8007 61.4336 72.6836C61.5507 72.5665 61.7094 72.5005 61.875 72.5H76.875ZM65 70V63.75H73.75V70H65ZM61.875 61.25C61.7094 61.2495 61.5507 61.1835 61.4336 61.0664C61.3165 60.9493 61.2505 60.7906 61.25 60.625V56.875C61.2505 56.7094 61.3165 56.5507 61.4336 56.4336C61.5507 56.3165 61.7094 56.2505 61.875 56.25H76.875C77.0406 56.2505 77.1993 56.3165 77.3164 56.4336C77.4335 56.5507 77.4995 56.7094 77.5 56.875V60.625C77.4995 60.7906 77.4335 60.9493 77.3164 61.0664C77.1993 61.1835 77.0406 61.2495 76.875 61.25H61.875Z" fill="#2D4356"/>
<path d="M76.875 72.5H61.875C61.5298 72.5 61.25 72.7798 61.25 73.125V76.875C61.25 77.2202 61.5298 77.5 61.875 77.5H76.875C77.2202 77.5 77.5 77.2202 77.5 76.875V73.125C77.5 72.7798 77.2202 72.5 76.875 72.5Z" fill="#FC785E"/>
<path d="M65 63.75H73.75V70H65V63.75Z" fill="#E1EBF4"/>
<path d="M76.875 56.25H61.875C61.5298 56.25 61.25 56.5298 61.25 56.875V60.625C61.25 60.9702 61.5298 61.25 61.875 61.25H76.875C77.2202 61.25 77.5 60.9702 77.5 60.625V56.875C77.5 56.5298 77.2202 56.25 76.875 56.25Z" fill="#FC785E"/>
<path d="M18.125 10C18.9537 9.9997 19.7484 9.67036 20.3344 9.08438C20.9204 8.49839 21.2497 7.70371 21.25 6.875V3.125C21.2497 2.29629 20.9204 1.50161 20.3344 0.915622C19.7484 0.329636 18.9537 0.00029983 18.125 0L3.125 0C2.29629 0.00029983 1.50161 0.329636 0.915622 0.915622C0.329636 1.50161 0.00029983 2.29629 0 3.125L0 6.875C0.00029983 7.70371 0.329636 8.49839 0.915622 9.08438C1.50161 9.67036 2.29629 9.9997 3.125 10H3.75V16.25H3.125C2.29629 16.2503 1.50161 16.5796 0.915622 17.1656C0.329636 17.7516 0.00029983 18.5463 0 19.375L0 23.125C0.00029983 23.9537 0.329636 24.7484 0.915622 25.3344C1.50161 25.9204 2.29629 26.2497 3.125 26.25H3.75V39.375C3.754 42.1917 4.8747 44.8919 6.86641 46.8836C8.85812 48.8753 11.5583 49.996 14.375 50H20.625V47.5H14.375C12.2207 47.4979 10.1553 46.6413 8.63203 45.118C7.10875 43.5947 6.25206 41.5293 6.25 39.375V26.25H15V35C15.0008 35.9943 15.3961 36.9477 16.0992 37.6508C16.8023 38.3539 17.7557 38.7492 18.75 38.75H20.625V36.25H18.75C18.4188 36.249 18.1014 36.117 17.8672 35.8828C17.633 35.6486 17.501 35.3312 17.5 35V26.25H18.125C18.9537 26.2497 19.7484 25.9204 20.3344 25.3344C20.9204 24.7484 21.2497 23.9537 21.25 23.125V19.375C21.2497 18.5463 20.9204 17.7516 20.3344 17.1656C19.7484 16.5796 18.9537 16.2503 18.125 16.25H17.5V10H18.125ZM18.125 18.75C18.2906 18.7505 18.4493 18.8165 18.5664 18.9336C18.6835 19.0507 18.7495 19.2094 18.75 19.375V23.125C18.7495 23.2906 18.6835 23.4493 18.5664 23.5664C18.4493 23.6835 18.2906 23.7495 18.125 23.75H3.125C2.95939 23.7495 2.80071 23.6835 2.6836 23.5664C2.5665 23.4493 2.50049 23.2906 2.5 23.125V19.375C2.50049 19.2094 2.5665 19.0507 2.6836 18.9336C2.80071 18.8165 2.95939 18.7505 3.125 18.75H18.125ZM6.25 16.25V10H15V16.25H6.25ZM3.125 7.5C2.95939 7.49951 2.80071 7.4335 2.6836 7.3164C2.5665 7.19929 2.50049 7.04061 2.5 6.875V3.125C2.50049 2.95939 2.5665 2.80071 2.6836 2.6836C2.80071 2.5665 2.95939 2.50049 3.125 2.5H18.125C18.2906 2.50049 18.4493 2.5665 18.5664 2.6836C18.6835 2.80071 18.7495 2.95939 18.75 3.125V6.875C18.7495 7.04061 18.6835 7.19929 18.5664 7.3164C18.4493 7.4335 18.2906 7.49951 18.125 7.5H3.125Z" fill="#2D4356"/>
<path d="M18.125 2.5H3.125C2.77982 2.5 2.5 2.77982 2.5 3.125V6.875C2.5 7.22018 2.77982 7.5 3.125 7.5H18.125C18.4702 7.5 18.75 7.22018 18.75 6.875V3.125C18.75 2.77982 18.4702 2.5 18.125 2.5Z" fill="#FC785E"/>
<path d="M6.25 10H15V16.25H6.25V10Z" fill="#E1EBF4"/>
<path d="M18.125 18.75H3.125C2.77982 18.75 2.5 19.0298 2.5 19.375V23.125C2.5 23.4702 2.77982 23.75 3.125 23.75H18.125C18.4702 23.75 18.75 23.4702 18.75 23.125V19.375C18.75 19.0298 18.4702 18.75 18.125 18.75Z" fill="#FC785E"/>
<path d="M54.375 31.875H50.625C50.0721 31.8768 49.5355 32.0618 49.099 32.401C48.6624 32.7403 48.3507 33.2147 48.2125 33.75H31.7875C31.6493 33.2147 31.3376 32.7403 30.901 32.401C30.4645 32.0618 29.9279 31.8768 29.375 31.875H25.625C25.2967 31.8749 24.9715 31.9395 24.6682 32.0651C24.3648 32.1907 24.0892 32.3749 23.857 32.607C23.6249 32.8392 23.4407 33.1148 23.3151 33.4182C23.1895 33.7215 23.1249 34.0467 23.125 34.375V51.875C23.1249 52.2033 23.1895 52.5285 23.3151 52.8318C23.4407 53.1352 23.6249 53.4108 23.857 53.643C24.0892 53.8751 24.3648 54.0593 24.6682 54.1849C24.9715 54.3105 25.2967 54.3751 25.625 54.375H29.375C29.9279 54.3732 30.4645 54.1882 30.901 53.849C31.3376 53.5097 31.6493 53.0353 31.7875 52.5H33.125V60C33.124 60.3312 32.992 60.6486 32.7578 60.8828C32.5236 61.117 32.2062 61.249 31.875 61.25H10V60.625C9.9997 59.7963 9.67036 59.0016 9.08438 58.4156C8.49839 57.8296 7.70371 57.5003 6.875 57.5H3.125C2.29629 57.5003 1.50161 57.8296 0.915622 58.4156C0.329636 59.0016 0.00029983 59.7963 0 60.625L0 75.625C0.00029983 76.4537 0.329636 77.2484 0.915622 77.8344C1.50161 78.4204 2.29629 78.7497 3.125 78.75H6.875C7.70371 78.7497 8.49839 78.4204 9.08438 77.8344C9.67036 77.2484 9.9997 76.4537 10 75.625V75H36.25C39.0667 74.996 41.7669 73.8753 43.7586 71.8836C45.7503 69.8919 46.871 67.1917 46.875 64.375V52.5H48.2125C48.3507 53.0353 48.6624 53.5097 49.099 53.849C49.5355 54.1882 50.0721 54.3732 50.625 54.375H54.375C54.7033 54.3751 55.0285 54.3105 55.3318 54.1849C55.6352 54.0593 55.9108 53.8751 56.143 53.643C56.3751 53.4108 56.5593 53.1352 56.6849 52.8318C56.8105 52.5285 56.8751 52.2033 56.875 51.875V34.375C56.8751 34.0467 56.8105 33.7215 56.6849 33.4182C56.5593 33.1148 56.3751 32.8392 56.143 32.607C55.9108 32.3749 55.6352 32.1907 55.3318 32.0651C55.0285 31.9395 54.7033 31.8749 54.375 31.875ZM29.375 51.875H25.625V34.375H29.375V51.875ZM7.5 75.625C7.49951 75.7906 7.4335 75.9493 7.3164 76.0664C7.19929 76.1835 7.04061 76.2495 6.875 76.25H3.125C2.95939 76.2495 2.80071 76.1835 2.6836 76.0664C2.5665 75.9493 2.50049 75.7906 2.5 75.625V60.625C2.50049 60.4594 2.5665 60.3007 2.6836 60.1836C2.80071 60.0665 2.95939 60.0005 3.125 60H6.875C7.04061 60.0005 7.19929 60.0665 7.3164 60.1836C7.4335 60.3007 7.49951 60.4594 7.5 60.625V75.625ZM44.375 64.375C44.3729 66.5293 43.5163 68.5947 41.993 70.118C40.4697 71.6413 38.4043 72.4979 36.25 72.5H10V63.75H31.875C32.8693 63.7492 33.8227 63.3539 34.5258 62.6508C35.2289 61.9477 35.6242 60.9943 35.625 60V52.5H44.375V64.375ZM48.125 50H31.875V36.25H48.125V50ZM54.375 51.875H50.625V34.375H54.375V51.875Z" fill="#2D4356"/>
<path d="M25.625 34.375H29.375V51.875H25.625V34.375Z" fill="#FC785E"/>
<path d="M50.625 34.375H54.375V51.875H50.625V34.375Z" fill="#FC785E"/>
<path d="M31.875 36.25V50H48.125V36.25H31.875ZM40 47.5C37.1938 47.5 35 45.5813 35 43.125C35 40.6687 37.1938 38.75 40 38.75C42.8062 38.75 45 40.6687 45 43.125C45 45.5813 42.8062 47.5 40 47.5Z" fill="#D68751"/>
<path d="M44.375 52.5V64.375C44.3729 66.5293 43.5163 68.5947 41.993 70.118C40.4697 71.6413 38.4043 72.4979 36.25 72.5H10V63.75H31.875C32.8693 63.7492 33.8227 63.3539 34.5258 62.6508C35.2289 61.9477 35.6242 60.9943 35.625 60V52.5H44.375Z" fill="#E1EBF4"/>
<path d="M6.875 60H3.125C2.77982 60 2.5 60.2798 2.5 60.625V75.625C2.5 75.9702 2.77982 76.25 3.125 76.25H6.875C7.22018 76.25 7.5 75.9702 7.5 75.625V60.625C7.5 60.2798 7.22018 60 6.875 60Z" fill="#FC785E"/>
<path d="M40 38.75C37.1938 38.75 35 40.6687 35 43.125C35 45.5813 37.1938 47.5 40 47.5C42.8062 47.5 45 45.5813 45 43.125C45 40.6687 42.8062 38.75 40 38.75ZM40 45C38.6188 45 37.5 44.1625 37.5 43.125C37.5 42.0875 38.6188 41.25 40 41.25C41.3812 41.25 42.5 42.0875 42.5 43.125C42.5 44.1625 41.3812 45 40 45Z" fill="#2D4356"/>
<path d="M40 45C41.3807 45 42.5 44.1605 42.5 43.125C42.5 42.0895 41.3807 41.25 40 41.25C38.6193 41.25 37.5 42.0895 37.5 43.125C37.5 44.1605 38.6193 45 40 45Z" fill="#E1EBF4"/>
<path opacity="0.5" d="M73.75 46.875V48.125C73.7479 45.9707 72.8913 43.9053 71.368 42.382C69.8447 40.8587 67.7793 40.0021 65.625 40H59.375V38.75H65.625C67.7793 38.7521 69.8447 39.6087 71.368 41.132C72.8913 42.6553 73.7479 44.7207 73.75 46.875Z" fill="white"/>
<path opacity="0.5" d="M20.625 38.75V40H18.75C17.7557 39.9992 16.8023 39.6039 16.0992 38.9008C15.3961 38.1977 15.0008 37.2443 15 36.25V35C15.0008 35.9943 15.3961 36.9477 16.0992 37.6508C16.8023 38.3539 17.7557 38.7492 18.75 38.75H20.625Z" fill="white"/>
<path opacity="0.5" d="M50.625 50.625H54.375V51.875H50.625V50.625Z" fill="#A54B3F"/>
<path opacity="0.5" d="M48.65 16.875C48.352 18.9567 47.3132 20.8612 45.7243 22.2388C44.1354 23.6165 42.1029 24.3749 40 24.3749C37.897 24.3749 35.8646 23.6165 34.2757 22.2388C32.6868 20.8612 31.648 18.9567 31.35 16.875H31.625C32.1609 18.6802 33.2658 20.264 34.775 21.3903C36.2842 22.5165 38.1169 23.125 40 23.125C41.8831 23.125 43.7158 22.5165 45.225 21.3903C46.7342 20.264 47.8391 18.6802 48.375 16.875H48.65Z" fill="#9FA5AA"/>
<path opacity="0.5" d="M65 52.5H73.75V53.75H65V52.5Z" fill="#9FA5AA"/>
<path opacity="0.3" d="M77.5 56.875V58.125C77.4995 57.9594 77.4335 57.8007 77.3164 57.6836C77.1993 57.5665 77.0406 57.5005 76.875 57.5H61.875C61.7094 57.5005 61.5507 57.5665 61.4336 57.6836C61.3165 57.8007 61.2505 57.9594 61.25 58.125V56.875C61.2505 56.7094 61.3165 56.5507 61.4336 56.4336C61.5507 56.3165 61.7094 56.2505 61.875 56.25H76.875C77.0406 56.2505 77.1993 56.3165 77.3164 56.4336C77.4335 56.5507 77.4995 56.7094 77.5 56.875Z" fill="#F9DBD7"/>
<path opacity="0.5" d="M77.5 59.375V60.625C77.4995 60.7906 77.4335 60.9493 77.3164 61.0664C77.1993 61.1835 77.0406 61.2495 76.875 61.25H61.875C61.7094 61.2495 61.5507 61.1835 61.4336 61.0664C61.3165 60.9493 61.2505 60.7906 61.25 60.625V59.375C61.2505 59.5406 61.3165 59.6993 61.4336 59.8164C61.5507 59.9335 61.7094 59.9995 61.875 60H76.875C77.0406 59.9995 77.1993 59.9335 77.3164 59.8164C77.4335 59.6993 77.4995 59.5406 77.5 59.375Z" fill="#A54B3F"/>
<path opacity="0.3" d="M77.5 73.125V74.375C77.4995 74.2094 77.4335 74.0507 77.3164 73.9336C77.1993 73.8165 77.0406 73.7505 76.875 73.75H61.875C61.7094 73.7505 61.5507 73.8165 61.4336 73.9336C61.3165 74.0507 61.2505 74.2094 61.25 74.375V73.125C61.2505 72.9594 61.3165 72.8007 61.4336 72.6836C61.5507 72.5665 61.7094 72.5005 61.875 72.5H76.875C77.0406 72.5005 77.1993 72.5665 77.3164 72.6836C77.4335 72.8007 77.4995 72.9594 77.5 73.125Z" fill="#F9DBD7"/>
<path opacity="0.5" d="M77.5 75.625V76.875C77.4995 77.0406 77.4335 77.1993 77.3164 77.3164C77.1993 77.4335 77.0406 77.4995 76.875 77.5H61.875C61.7094 77.4995 61.5507 77.4335 61.4336 77.3164C61.3165 77.1993 61.2505 77.0406 61.25 76.875V75.625C61.2505 75.7906 61.3165 75.9493 61.4336 76.0664C61.5507 76.1835 61.7094 76.2495 61.875 76.25H76.875C77.0406 76.2495 77.1993 76.1835 77.3164 76.0664C77.4335 75.9493 77.4995 75.7906 77.5 75.625Z" fill="#A54B3F"/>
<path opacity="0.3" d="M18.75 3.125V4.375C18.7495 4.20939 18.6835 4.05071 18.5664 3.9336C18.4493 3.8165 18.2906 3.75049 18.125 3.75H3.125C2.95939 3.75049 2.80071 3.8165 2.6836 3.9336C2.5665 4.05071 2.50049 4.20939 2.5 4.375V3.125C2.50049 2.95939 2.5665 2.80071 2.6836 2.6836C2.80071 2.5665 2.95939 2.50049 3.125 2.5H18.125C18.2906 2.50049 18.4493 2.5665 18.5664 2.6836C18.6835 2.80071 18.7495 2.95939 18.75 3.125Z" fill="#F9DBD7"/>
<path opacity="0.5" d="M18.75 5.625V6.875C18.7495 7.04061 18.6835 7.19929 18.5664 7.3164C18.4493 7.4335 18.2906 7.49951 18.125 7.5H3.125C2.95939 7.49951 2.80071 7.4335 2.6836 7.3164C2.5665 7.19929 2.50049 7.04061 2.5 6.875V5.625C2.50049 5.79061 2.5665 5.94929 2.6836 6.0664C2.80071 6.1835 2.95939 6.24951 3.125 6.25H18.125C18.2906 6.24951 18.4493 6.1835 18.5664 6.0664C18.6835 5.94929 18.7495 5.79061 18.75 5.625Z" fill="#A54B3F"/>
<path opacity="0.3" d="M18.75 19.375V20.625C18.7495 20.4594 18.6835 20.3007 18.5664 20.1836C18.4493 20.0665 18.2906 20.0005 18.125 20H3.125C2.95939 20.0005 2.80071 20.0665 2.6836 20.1836C2.5665 20.3007 2.50049 20.4594 2.5 20.625V19.375C2.50049 19.2094 2.5665 19.0507 2.6836 18.9336C2.80071 18.8165 2.95939 18.7505 3.125 18.75H18.125C18.2906 18.7505 18.4493 18.8165 18.5664 18.9336C18.6835 19.0507 18.7495 19.2094 18.75 19.375Z" fill="#F9DBD7"/>
<path opacity="0.5" d="M18.75 21.875V23.125C18.7495 23.2906 18.6835 23.4493 18.5664 23.5664C18.4493 23.6835 18.2906 23.7495 18.125 23.75H3.125C2.95939 23.7495 2.80071 23.6835 2.6836 23.5664C2.5665 23.4493 2.50049 23.2906 2.5 23.125V21.875C2.50049 22.0406 2.5665 22.1993 2.6836 22.3164C2.80071 22.4335 2.95939 22.4995 3.125 22.5H18.125C18.2906 22.4995 18.4493 22.4335 18.5664 22.3164C18.6835 22.1993 18.7495 22.0406 18.75 21.875Z" fill="#A54B3F"/>
<path opacity="0.5" d="M20.625 46.25V47.5H14.375C12.2207 47.4979 10.1553 46.6413 8.63203 45.118C7.10875 43.5947 6.25206 41.5293 6.25 39.375V38.125C6.25206 40.2793 7.10875 42.3447 8.63203 43.868C10.1553 45.3913 12.2207 46.2479 14.375 46.25H20.625Z" fill="#9FA5AA"/>
<path opacity="0.3" d="M25.625 34.375H29.375V35.625H25.625V34.375Z" fill="#E5D0C3"/>
<path opacity="0.5" d="M25.625 50.625H29.375V51.875H25.625V50.625Z" fill="#A54B3F"/>
<path opacity="0.3" d="M31.875 36.25H48.125V37.5H31.875V36.25Z" fill="#E5D0C3"/>
<path opacity="0.4" d="M31.875 48.75H48.125V50H31.875V48.75Z" fill="#72492D"/>
<path opacity="0.3" d="M50.625 34.375H54.375V35.625H50.625V34.375Z" fill="#F9DBD7"/>
<path opacity="0.5" d="M35.625 60V61.25C35.6242 62.2443 35.2289 63.1977 34.5258 63.9008C33.8227 64.6039 32.8693 64.9992 31.875 65H10V63.75H31.875C32.8693 63.7492 33.8227 63.3539 34.5258 62.6508C35.2289 61.9477 35.6242 60.9943 35.625 60Z" fill="white"/>
<path opacity="0.3" d="M7.5 60.625V61.875C7.49951 61.7094 7.4335 61.5507 7.3164 61.4336C7.19929 61.3165 7.04061 61.2505 6.875 61.25H3.125C2.95939 61.2505 2.80071 61.3165 2.6836 61.4336C2.5665 61.5507 2.50049 61.7094 2.5 61.875V60.625C2.50049 60.4594 2.5665 60.3007 2.6836 60.1836C2.80071 60.0665 2.95939 60.0005 3.125 60H6.875C7.04061 60.0005 7.19929 60.0665 7.3164 60.1836C7.4335 60.3007 7.49951 60.4594 7.5 60.625Z" fill="#F9DBD7"/>
<path opacity="0.5" d="M7.5 74.375V75.625C7.49951 75.7906 7.4335 75.9493 7.3164 76.0664C7.19929 76.1835 7.04061 76.2495 6.875 76.25H3.125C2.95939 76.2495 2.80071 76.1835 2.6836 76.0664C2.5665 75.9493 2.50049 75.7906 2.5 75.625V74.375C2.50049 74.5406 2.5665 74.6993 2.6836 74.8164C2.80071 74.9335 2.95939 74.9995 3.125 75H6.875C7.04061 74.9995 7.19929 74.9335 7.3164 74.8164C7.4335 74.6993 7.49951 74.5406 7.5 74.375Z" fill="#A54B3F"/>
<path opacity="0.5" d="M44.375 63.125V64.375C44.3729 66.5293 43.5163 68.5947 41.993 70.118C40.4697 71.6413 38.4043 72.4979 36.25 72.5H10V71.25H36.25C38.4043 71.2479 40.4697 70.3913 41.993 68.868C43.5163 67.3447 44.3729 65.2793 44.375 63.125Z" fill="#9FA5AA"/>
</g>
<defs>
<clipPath id="clip0_1_566">
<rect width="80" height="80" fill="white"/>
</clipPath>
</defs>
</svg>
