<svg width="80" height="80" viewBox="0 0 80 80" fill="none" xmlns="http://www.w3.org/2000/svg">
<g clip-path="url(#clip0_1_555)">
<path d="M73.3333 31.7499C72.1666 31.5166 74.6666 33 40 10.3666C5.31665 33 7.83331 31.5166 6.66665 31.7499C5.91829 31.8979 5.14373 31.8384 4.42675 31.5779C3.70976 31.3174 3.07766 30.8658 2.59882 30.272C2.11998 29.6781 1.81263 28.9647 1.71002 28.2088C1.60741 27.4529 1.71344 26.6833 2.01665 25.9833C2.71665 24.3166 0.733311 25.9833 36.35 2.74995C37.435 2.04007 38.7034 1.66199 40 1.66199C41.2966 1.66199 42.565 2.04007 43.65 2.74995L76.4333 24.1333C77.2538 24.6614 77.8639 25.4596 78.158 26.39C78.4521 27.3203 78.4118 28.3242 78.0439 29.228C77.6761 30.1317 77.0039 30.8785 76.1437 31.339C75.2835 31.7996 74.2894 31.9449 73.3333 31.7499Z" fill="#DB5669"/>
<path d="M77.9833 25.9833C77.5997 26.8566 76.9303 27.5734 76.0851 28.0157C75.24 28.4579 74.2695 28.5993 73.3333 28.4166C72.1666 28.1833 74.6666 29.6666 39.9999 7.03328C5.3166 29.6666 7.83327 28.1833 6.6666 28.4166C5.7304 28.5993 4.75988 28.4579 3.91474 28.0157C3.06959 27.5734 2.40017 26.8566 2.0166 25.9833C2.7166 24.3166 0.733264 25.9833 36.3499 2.74995C37.4349 2.04007 38.7034 1.66199 39.9999 1.66199C41.2965 1.66199 42.565 2.04007 43.6499 2.74995C79.4666 26.1166 77.2999 24.3666 77.9833 25.9833Z" fill="#F26674"/>
<path d="M71.6666 6.66663V21.0166L61.6666 14.5V6.66663H71.6666Z" fill="#7C7D7D"/>
<path d="M71.6667 6.66663V17.1833L70.1667 16.2C68.5816 15.1648 67.2793 13.7513 66.3773 12.0869C65.4753 10.4225 65.0019 8.55972 65 6.66663H71.6667Z" fill="#919191"/>
<path d="M73.3333 31.7499V78.3332H6.66663V31.7499C7.81663 31.5166 5.19996 33.0666 40 10.3666C74.6833 32.9999 72.1666 31.5166 73.3333 31.7499Z" fill="#DAD7E5"/>
<path d="M73.3333 31.7499V74.9999H21.6666C19.0145 74.9999 16.4709 73.9463 14.5956 72.071C12.7202 70.1956 11.6666 67.6521 11.6666 64.9999V28.8499L40 10.3666C74.6833 32.9999 72.1666 31.5166 73.3333 31.7499Z" fill="#EDEBF2"/>
<path d="M76.6666 80H3.33329C2.89127 80 2.46734 79.8244 2.15478 79.5118C1.84222 79.1992 1.66663 78.7753 1.66663 78.3333C1.66663 77.8913 1.84222 77.4673 2.15478 77.1548C2.46734 76.8422 2.89127 76.6666 3.33329 76.6666H76.6666C77.1087 76.6666 77.5326 76.8422 77.8451 77.1548C78.1577 77.4673 78.3333 77.8913 78.3333 78.3333C78.3333 78.7753 78.1577 79.1992 77.8451 79.5118C77.5326 79.8244 77.1087 80 76.6666 80Z" fill="#DAD7E5"/>
<path d="M37.9833 57.1166C37.4014 57.711 36.9602 58.4283 36.6919 59.2157C36.4237 60.0031 36.3353 60.8406 36.4333 61.6666C36.5918 63.2181 36.3489 64.7842 35.728 66.2148C35.107 67.6454 34.1288 68.8924 32.8872 69.8361C31.6456 70.7798 30.1823 71.3887 28.6378 71.6041C27.0932 71.8196 25.5191 71.6345 24.0667 71.0666L28.6833 66.4499L27.4 62.5999L23.55 61.3166L18.9333 65.9333C18.363 64.4646 18.183 62.8732 18.411 61.3142C18.6389 59.7553 19.267 58.282 20.2339 57.0381C21.2008 55.7941 22.4736 54.822 23.9282 54.2166C25.3827 53.6111 26.9694 53.3929 28.5333 53.5833C31.7833 53.9999 32.75 52.0999 41.9667 42.8999C42.5388 42.3469 42.9773 41.6706 43.2488 40.9226C43.5202 40.1746 43.6176 39.3745 43.5333 38.5833C43.343 37.0193 43.5611 35.4326 44.1666 33.9781C44.7721 32.5236 45.7442 31.2508 46.9881 30.2838C48.232 29.3169 49.7053 28.6888 51.2643 28.4609C52.8232 28.233 54.4146 28.4129 55.8833 28.9833L51.2667 33.5999L52.55 37.4499L56.4 38.7333L61.0167 34.1166C61.5745 35.5631 61.7534 37.1282 61.5366 38.6633C61.3198 40.1984 60.7143 41.6527 59.7777 42.8882C58.8411 44.1236 57.6044 45.0993 56.1849 45.7226C54.7653 46.346 53.2101 46.5963 51.6667 46.4499C48.0833 46.0833 47.3833 47.7166 37.9833 57.1166Z" fill="#919191"/>
<path d="M51.6666 46.45C48.0833 46.0833 47.3666 47.7833 38.0333 57.1167C37.4425 57.7066 36.9919 58.4218 36.7149 59.2094C36.438 59.997 36.3417 60.8368 36.4333 61.6667C36.5918 63.2181 36.3489 64.7843 35.7279 66.2149C35.1069 67.6455 34.1287 68.8924 32.8872 69.8362C31.6456 70.7799 30.1823 71.3887 28.6377 71.6042C27.0931 71.8197 25.5191 71.6346 24.0666 71.0667L28.6833 66.45L27.6166 63.2333C27.3333 62.3833 28.0166 62.8 23.55 61.3167L21.6666 63.1167C21.8129 61.9309 22.1917 60.7856 22.7813 59.7464C23.3709 58.7073 24.1597 57.7946 25.1025 57.0608C26.0454 56.3269 27.1238 55.7863 28.2759 55.4699C29.428 55.1534 30.6312 55.0674 31.8166 55.2167C35.05 55.6333 35.95 53.8333 45.25 44.5333C45.8221 43.9803 46.2606 43.304 46.5321 42.556C46.8035 41.808 46.9009 41.0079 46.8166 40.2167C46.6605 39.0227 46.7428 37.8097 47.0589 36.6478C47.375 35.4859 47.9185 34.3983 48.6579 33.448C49.3974 32.4977 50.3181 31.7036 51.3667 31.1118C52.4153 30.5199 53.5709 30.142 54.7666 30L51.2666 33.5L52.55 37.35L56.4 38.6333L61.0166 34.0167C61.5969 35.4683 61.7935 37.0449 61.5874 38.5945C61.3812 40.1442 60.7794 41.6146 59.8398 42.864C58.9002 44.1134 57.6546 45.0997 56.223 45.7278C54.7915 46.3559 53.2222 46.6046 51.6666 46.45Z" fill="#7C7D7D"/>
</g>
<defs>
<clipPath id="clip0_1_555">
<rect width="80" height="80" fill="white"/>
</clipPath>
</defs>
</svg>
