<svg width="651" height="904" viewBox="0 0 651 904" fill="none" xmlns="http://www.w3.org/2000/svg">
<path fill-rule="evenodd" clip-rule="evenodd" d="M157.555 185.972C213.399 116.626 262.088 38.4153 348.186 4.68878C433.609 -28.7734 533.968 -21.2258 629.329 1.1669C720.323 22.534 823.822 52.4314 876.518 128.752C928.456 203.973 886.681 295.232 891.639 381.067C894.958 438.541 898.006 492.52 900.849 549.969C904.877 631.339 941.575 716.015 911.836 789.087C874.493 880.841 822.461 999.949 715.809 1004.63C607.195 1009.4 550.25 854.119 446.546 809.511C338.796 763.163 202.319 820.754 112.616 745.172C22.7788 669.477 -6.75199 541.493 1.82259 434.795C10.0037 332.994 94.8147 263.881 157.555 185.972Z" fill="#C4C4C4" fill-opacity="0.26"/>
</svg>
