<svg width="80" height="80" viewBox="0 0 80 80" fill="none" xmlns="http://www.w3.org/2000/svg">
<g clip-path="url(#clip0_1_504)">
<path fill-rule="evenodd" clip-rule="evenodd" d="M64.8276 28.1035H75.8621V70.8621H64.8276V28.1035Z" fill="#A59078"/>
<path fill-rule="evenodd" clip-rule="evenodd" d="M40 28.1035H51.0345V70.8621H40V28.1035Z" fill="#A59078"/>
<path fill-rule="evenodd" clip-rule="evenodd" d="M70.3449 70.8621C69.5831 70.8621 68.9656 70.2446 68.9656 69.4828V29.4828C68.9656 28.7211 69.5831 28.1035 70.3449 28.1035C71.1067 28.1035 71.7242 28.7211 71.7242 29.4828V69.4828C71.7242 70.2446 71.1067 70.8621 70.3449 70.8621Z" fill="#7F6E5D"/>
<path fill-rule="evenodd" clip-rule="evenodd" d="M45.5172 70.8621C44.7555 70.8621 44.1379 70.2446 44.1379 69.4828V29.4828C44.1379 28.7211 44.7555 28.1035 45.5172 28.1035C46.279 28.1035 46.8966 28.7211 46.8966 29.4828V69.4828C46.8966 70.2446 46.279 70.8621 45.5172 70.8621Z" fill="#7F6E5D"/>
<path fill-rule="evenodd" clip-rule="evenodd" d="M80 17.938V22.5862C80 23.348 79.3825 23.9656 78.6207 23.9656H40V15.6897L78.6207 17.069L78.8828 16.5311L79.2138 16.6966C79.402 16.7807 79.5674 16.9083 79.6965 17.069C79.8942 17.3154 80.0013 17.6221 80 17.938Z" fill="#A59078"/>
<path fill-rule="evenodd" clip-rule="evenodd" d="M79.6965 17.069H40V-2.24133L78.8828 16.5311L79.2138 16.6966C79.402 16.7807 79.5674 16.9083 79.6965 17.069Z" fill="#CBB292"/>
<path d="M77.2414 23.9656H63.4483C62.6865 23.9656 62.069 24.5831 62.069 25.3449V28.1035C62.069 28.8653 62.6865 29.4828 63.4483 29.4828H77.2414C78.0032 29.4828 78.6207 28.8653 78.6207 28.1035V25.3449C78.6207 24.5831 78.0032 23.9656 77.2414 23.9656Z" fill="#CBB292"/>
<path d="M77.2414 69.4828H63.4483C62.6865 69.4828 62.069 70.1003 62.069 70.8621V73.6207C62.069 74.3825 62.6865 75 63.4483 75H77.2414C78.0032 75 78.6207 74.3825 78.6207 73.6207V70.8621C78.6207 70.1003 78.0032 69.4828 77.2414 69.4828Z" fill="#CBB292"/>
<path fill-rule="evenodd" clip-rule="evenodd" d="M53.7931 25.3449V28.1035C53.7931 28.8653 53.1756 29.4828 52.4138 29.4828H40V23.9656H52.4138C53.1756 23.9656 53.7931 24.5831 53.7931 25.3449Z" fill="#CBB292"/>
<path fill-rule="evenodd" clip-rule="evenodd" d="M53.7931 70.8621V73.6207C53.7931 74.3825 53.1756 75 52.4138 75H40C41.5189 74.9888 42.7474 73.7603 42.7586 72.2414C42.7541 70.7198 41.5217 69.4873 40 69.4828H52.4138C53.1756 69.4828 53.7931 70.1003 53.7931 70.8621Z" fill="#CBB292"/>
<path fill-rule="evenodd" clip-rule="evenodd" d="M8.27584 30.8622C7.73031 30.8625 7.23587 30.5412 7.01447 30.0426C6.79308 29.544 6.88634 28.9618 7.25239 28.5573L33.4593 -0.40819C33.9704 -0.973425 34.843 -1.01727 35.4082 -0.506121C35.9735 0.00502813 36.0173 0.87761 35.5062 1.44284L9.29929 30.4084C9.03762 30.6975 8.6658 30.8624 8.27584 30.8622Z" fill="#7F8C8D"/>
<path fill-rule="evenodd" clip-rule="evenodd" d="M34.4828 30.8622C34.0928 30.8624 33.721 30.6975 33.4593 30.4084L7.25244 1.44287C6.92178 1.07722 6.81131 0.562953 6.96264 0.0937758C7.11397 -0.375402 7.50411 -0.728207 7.98609 -0.831741C8.46807 -0.935276 8.96868 -0.773811 9.29934 -0.408168L35.5062 28.5574C35.8723 28.9618 35.9655 29.5441 35.7442 30.0426C35.5228 30.5412 35.0283 30.8625 34.4828 30.8622Z" fill="#7F8C8D"/>
<path fill-rule="evenodd" clip-rule="evenodd" d="M8.27584 65.3449C7.73031 65.3452 7.23587 65.024 7.01447 64.5254C6.79308 64.0268 6.88634 63.4446 7.25239 63.0401L33.4593 34.0746C33.9704 33.5094 34.843 33.4655 35.4082 33.9767C35.9735 34.4878 36.0173 35.3604 35.5062 35.9256L9.29929 64.8912C9.03762 65.1803 8.6658 65.3452 8.27584 65.3449Z" fill="#7F8C8D"/>
<path fill-rule="evenodd" clip-rule="evenodd" d="M34.4828 65.3449C34.0928 65.3452 33.721 65.1803 33.4593 64.8912L7.25242 35.9256C6.74127 35.3604 6.78512 34.4878 7.35036 33.9767C7.91559 33.4655 8.78817 33.5094 9.29932 34.0746L35.5062 63.0401C35.8723 63.4446 35.9655 64.0268 35.7441 64.5254C35.5227 65.024 35.0283 65.3452 34.4828 65.3449Z" fill="#7F8C8D"/>
<path fill-rule="evenodd" clip-rule="evenodd" d="M36.7158 29.4828H5.51721V35H36.7158" fill="#CB8252"/>
<path fill-rule="evenodd" clip-rule="evenodd" d="M40 69.4828H36.7158H5.51721V63.9656H36.7158" fill="#CB8252"/>
<path fill-rule="evenodd" clip-rule="evenodd" d="M5.51729 -5C7.04083 -5 8.27591 -3.76492 8.27591 -2.24138V69.4828H2.75867V-2.24138C2.75867 -3.76492 3.99374 -5 5.51729 -5Z" fill="#95A5A5"/>
<path d="M8.27586 69.4828H2.75862C1.23508 69.4828 0 70.7179 0 72.2414C0 73.765 1.23508 75 2.75862 75H8.27586C9.79941 75 11.0345 73.765 11.0345 72.2414C11.0345 70.7179 9.79941 69.4828 8.27586 69.4828Z" fill="#7F8C8D"/>
<path fill-rule="evenodd" clip-rule="evenodd" d="M42.7586 72.2414C42.7473 73.7603 41.5188 74.9888 40 75H34.4827C32.9611 74.9955 31.7287 73.7631 31.7241 72.2414C31.7354 70.7226 32.9639 69.4941 34.4827 69.4828H40C41.5216 69.4873 42.7541 70.7198 42.7586 72.2414Z" fill="#7F8C8D"/>
<path fill-rule="evenodd" clip-rule="evenodd" d="M40 -2.24134L40.0001 69.4828H34.4828V-2.24134C34.4873 -3.763 35.7198 -4.99542 37.2414 -4.99996C37.9733 -5.00386 38.6753 -4.71011 39.1862 -4.18617C39.7102 -3.67519 40.0039 -2.97319 40 -2.24134Z" fill="#95A5A5"/>
</g>
<defs>
<clipPath id="clip0_1_504">
<rect width="80" height="80" fill="white"/>
</clipPath>
</defs>
</svg>
