<svg width="80" height="80" viewBox="0 0 80 80" fill="none" xmlns="http://www.w3.org/2000/svg">
<g clip-path="url(#clip0_1_538)">
<path d="M40 80C62.0914 80 80 62.0914 80 40C80 17.9086 62.0914 0 40 0C17.9086 0 0 17.9086 0 40C0 62.0914 17.9086 80 40 80Z" fill="#FFF24D"/>
<path d="M43.5278 76.5977L56.7225 69.1683C67.1132 63.3175 73.5426 52.3191 73.5426 40.3942V8.665C73.5426 5.66609 70.4829 3.63921 67.7215 4.80859C60.7092 7.77812 52.7029 7.23875 46.1523 3.35531L45.4815 2.95765C42.102 0.954058 37.8984 0.954058 34.5189 2.95765L33.8481 3.35531C27.2975 7.23875 19.2912 7.77828 12.2789 4.80859C9.51745 3.63921 6.45776 5.66609 6.45776 8.665V40.3942C6.45776 52.3191 12.887 63.3175 23.2779 69.1683L36.4726 76.5977C38.6626 77.8309 41.3376 77.8309 43.5278 76.5977Z" fill="#475959"/>
<path d="M24.3814 69.7894L23.2771 69.1683C12.8871 63.318 6.45752 52.3192 6.45752 40.3942V8.66498C6.45752 6.25482 8.43393 4.47217 10.6427 4.47217C11.1833 4.47217 11.7363 4.57904 12.2783 4.80826C12.7771 5.01889 13.2805 5.21248 13.7885 5.38764C12.5913 6.16654 11.7641 7.51107 11.7641 9.11717V42.8383C11.7641 53.3555 16.4697 63.1925 24.3814 69.7894Z" fill="#2B3A3A"/>
<path d="M27.0773 62.4198C19.1356 57.9481 14.202 49.5084 14.202 40.3942V13.5729C16.6214 14.1564 19.1034 14.4506 21.6239 14.4506C27.3122 14.4506 32.9048 12.9175 37.7972 10.0172L38.4678 9.6195C38.9314 9.34465 39.4611 9.19934 39.9998 9.19934C40.5386 9.19934 41.0683 9.3445 41.5319 9.61934L42.2025 10.017C47.0956 12.9179 52.6884 14.4509 58.3764 14.4506C60.8969 14.4504 63.3786 14.1562 65.7978 13.5729V40.3943C65.7978 49.5086 60.8642 57.9482 52.9225 62.42L40 69.6962L27.0773 62.4198Z" fill="#56B7C1"/>
<path d="M19.7658 42.8999C19.7658 50.5096 22.7133 57.6841 27.7178 62.78L27.0781 62.4191C19.1369 57.9474 14.202 49.5074 14.202 40.3936V13.573C16.0236 14.0113 17.8822 14.2871 19.7656 14.3955L19.7658 42.8999Z" fill="#40A5B5"/>
<path d="M62.9665 78.1775C61.3308 78.1775 59.7773 77.4228 58.7663 76.1189L49.8788 64.6548C48.0802 62.3348 48.5029 58.9961 50.8229 57.1975C53.143 55.3989 56.4818 55.8217 58.2804 58.1415L62.2701 63.2879L70.0557 49.5018C71.4994 46.9458 74.7413 46.0439 77.2977 47.4875C79.8538 48.9311 80.7555 52.1734 79.3121 54.7293L67.5954 75.4761C66.7204 77.0256 65.1279 78.0343 63.3532 78.1636C63.224 78.1729 63.0948 78.1775 62.9665 78.1775Z" fill="#4EB77D"/>
<path d="M79.1766 49.2752C79.1022 49.2255 79.0243 49.1795 78.9463 49.1352C76.3896 47.6912 73.1474 48.593 71.7033 51.1497L63.9183 64.9356L62.2705 63.2878L70.0557 49.5019C71.4996 46.9452 74.7419 46.0434 77.2986 47.4873C78.0924 47.9356 78.7249 48.5558 79.1766 49.2752Z" fill="#3DA569"/>
<path d="M66.776 76.5681C65.8813 77.4912 64.6675 78.0687 63.353 78.1645C63.2236 78.1734 63.0944 78.1787 62.9667 78.1787C61.3297 78.1787 59.7775 77.4238 58.766 76.1199L49.8788 64.6549C48.0805 62.3357 48.5021 58.9977 50.8232 57.1976C51.5088 56.6643 52.2866 56.3276 53.0856 56.1771C51.2642 58.0446 51.0516 61.0176 52.6958 63.1384L61.583 74.6034C62.5947 75.9074 64.1485 76.6621 65.7838 76.6621C65.9113 76.6621 66.0407 76.6568 66.17 76.6479C66.3755 76.6335 66.5775 76.607 66.776 76.5681Z" fill="#3DA569"/>
<path d="M49.3291 29.2675L39.4003 19.3387L29.4716 29.2675C23.9881 34.7509 23.9881 43.6414 29.4716 49.1248C34.955 54.6083 43.8455 54.6083 49.3289 49.1248C54.8125 43.6414 54.8125 34.7509 49.3291 29.2675Z" fill="#C2F6FF"/>
<path d="M39.4016 53.2381C35.8075 53.2381 32.2135 51.867 29.4714 49.1249C23.9872 43.6407 23.9872 34.7514 29.4714 29.2671L39.4016 19.3395L36.0138 29.2671C34.1435 34.7514 34.1435 43.6407 36.0138 49.1249C36.9477 51.867 38.1747 53.2381 39.4016 53.2381Z" fill="#9BE7F9"/>
<path d="M46.7926 45.3909C49.4611 45.3909 51.6244 43.2276 51.6244 40.559C51.6244 37.8905 49.4611 35.7272 46.7926 35.7272C44.124 35.7272 41.9607 37.8905 41.9607 40.559C41.9607 43.2276 44.124 45.3909 46.7926 45.3909Z" fill="white"/>
</g>
<defs>
<clipPath id="clip0_1_538">
<rect width="80" height="80" fill="white"/>
</clipPath>
</defs>
</svg>
